<svg id="Слой_1" data-name="Слой 1" xmlns="http://www.w3.org/2000/svg" xmlns:xlink="http://www.w3.org/1999/xlink" viewBox="0 0 258.03 79.65"><defs><style>.cls-1{fill:#00903f;stroke-width:0.25px;}.cls-1,.cls-10,.cls-11,.cls-12,.cls-14,.cls-17,.cls-20,.cls-23,.cls-25,.cls-27,.cls-29,.cls-3,.cls-31,.cls-33,.cls-35,.cls-38,.cls-4,.cls-5,.cls-51,.cls-52,.cls-6,.cls-7,.cls-8,.cls-9{stroke:#1d1d1b;stroke-miterlimit:10;}.cls-2{fill:url(#Безымянный_градиент_69);}.cls-10,.cls-11,.cls-12,.cls-14,.cls-17,.cls-20,.cls-23,.cls-25,.cls-27,.cls-29,.cls-3,.cls-31,.cls-33,.cls-35,.cls-38,.cls-4,.cls-5,.cls-51,.cls-52,.cls-6,.cls-7,.cls-8,.cls-9{stroke-width:0.1px;}.cls-3{fill:url(#Безымянный_градиент_34);}.cls-4{fill:url(#Безымянный_градиент_38);}.cls-5{fill:url(#Безымянный_градиент_35);}.cls-6{fill:url(#Безымянный_градиент_37);}.cls-7{fill:url(#Безымянный_градиент_39);}.cls-8{fill:url(#Безымянный_градиент_32);}.cls-9{fill:url(#Безымянный_градиент_41);}.cls-10{fill:url(#Безымянный_градиент_32-2);}.cls-11{fill:url(#Безымянный_градиент_40);}.cls-12{fill:#063;}.cls-13{fill:#544237;}.cls-14{fill:url(#Безымянный_градиент_65);}.cls-15{fill:url(#Безымянный_градиент_8);}.cls-16{fill:#514036;}.cls-17{fill:url(#Безымянный_градиент_62);}.cls-18{fill:url(#Безымянный_градиент_8-2);}.cls-19{fill:#42342a;}.cls-20{fill:url(#Безымянный_градиент_67);}.cls-21{fill:url(#Безымянный_градиент_9);}.cls-22{fill:#4f3f34;}.cls-23{fill:url(#Безымянный_градиент_8-3);}.cls-24{fill:url(#Безымянный_градиент_9-2);}.cls-25{fill:url(#Безымянный_градиент_64);}.cls-26{fill:url(#Безымянный_градиент_7);}.cls-27{fill:url(#Безымянный_градиент_8-4);}.cls-28{fill:url(#Безымянный_градиент_7-2);}.cls-29{fill:url(#Безымянный_градиент_61);}.cls-30{fill:url(#Безымянный_градиент_8-5);}.cls-31{fill:url(#Безымянный_градиент_8-6);}.cls-32{fill:url(#Безымянный_градиент_9-3);}.cls-33{fill:url(#Безымянный_градиент_8-7);}.cls-34{fill:url(#Безымянный_градиент_9-4);}.cls-35{fill:url(#Безымянный_градиент_66);}.cls-36{fill:url(#Безымянный_градиент_8-8);}.cls-37{fill:#4c3d32;}.cls-38{fill:url(#Безымянный_градиент_63);}.cls-39{fill:url(#Безымянный_градиент_7-3);}.cls-40{fill:url(#Безымянный_градиент_31);}.cls-41{fill:url(#Безымянный_градиент_27);}.cls-42{fill:url(#Безымянный_градиент_18);}.cls-43{fill:url(#Безымянный_градиент_25);}.cls-44{fill:url(#Безымянный_градиент_23);}.cls-45{fill:url(#Безымянный_градиент_20);}.cls-46{fill:url(#Безымянный_градиент_29);}.cls-47{fill:url(#Безымянный_градиент_16);}.cls-48{fill:url(#Безымянный_градиент_19);}.cls-49{fill:url(#Безымянный_градиент_26);}.cls-50{fill:url(#Безымянный_градиент_21);}.cls-51{fill:url(#Безымянный_градиент_32-3);}.cls-52{fill:url(#Безымянный_градиент_36);}</style><linearGradient id="Безымянный_градиент_69" x1="114.16" y1="41.85" x2="159.73" y2="41.85" gradientUnits="userSpaceOnUse"><stop offset="0.73" stop-color="#007735"/><stop offset="0.93" stop-color="#514036"/></linearGradient><linearGradient id="Безымянный_градиент_34" x1="136.77" y1="28.2" x2="136.85" y2="24.24" gradientUnits="userSpaceOnUse"><stop offset="0.18" stop-color="#372b22"/><stop offset="0.42" stop-color="#283f29"/><stop offset="0.91" stop-color="#00723a"/><stop offset="1" stop-color="#00723a"/></linearGradient><linearGradient id="Безымянный_градиент_38" x1="144.88" y1="32.63" x2="147.34" y2="30.26" gradientUnits="userSpaceOnUse"><stop offset="0.2" stop-color="#372b22"/><stop offset="0.47" stop-color="#283f29"/><stop offset="1" stop-color="#00723a"/></linearGradient><linearGradient id="Безымянный_градиент_35" x1="128.18" y1="37.8" x2="128.09" y2="33.22" gradientUnits="userSpaceOnUse"><stop offset="0.13" stop-color="#372b22"/><stop offset="0.41" stop-color="#283f29"/><stop offset="0.99" stop-color="#00723a"/></linearGradient><linearGradient id="Безымянный_градиент_37" x1="135.12" y1="40.77" x2="135.13" y2="37.55" gradientUnits="userSpaceOnUse"><stop offset="0" stop-color="#372b22"/><stop offset="0.29" stop-color="#283f29"/><stop offset="0.88" stop-color="#00723a"/></linearGradient><linearGradient id="Безымянный_градиент_39" x1="124.57" y1="47.29" x2="122.65" y2="47.91" gradientUnits="userSpaceOnUse"><stop offset="0" stop-color="#372b22"/><stop offset="0.27" stop-color="#283f29"/><stop offset="0.82" stop-color="#00723a"/></linearGradient><linearGradient id="Безымянный_градиент_32" x1="143.9" y1="38.17" x2="147.93" y2="38.17" gradientUnits="userSpaceOnUse"><stop offset="0" stop-color="#372b22"/><stop offset="0.23" stop-color="#283f29"/><stop offset="0.69" stop-color="#00723a"/></linearGradient><linearGradient id="Безымянный_градиент_41" x1="148.05" y1="47.51" x2="151.26" y2="50.94" gradientUnits="userSpaceOnUse"><stop offset="0" stop-color="#372b22"/><stop offset="0.26" stop-color="#283f29"/><stop offset="0.79" stop-color="#00723a"/></linearGradient><linearGradient id="Безымянный_градиент_32-2" x1="134.04" y1="48.01" x2="135.11" y2="53.56" xlink:href="#Безымянный_градиент_32"/><linearGradient id="Безымянный_градиент_40" x1="141.06" y1="52.6" x2="143.38" y2="55.39" gradientUnits="userSpaceOnUse"><stop offset="0" stop-color="#372b22"/><stop offset="0.26" stop-color="#283f29"/><stop offset="0.79" stop-color="#00723a"/></linearGradient><radialGradient id="Безымянный_градиент_65" cx="152.11" cy="19.32" r="6.76" gradientUnits="userSpaceOnUse"><stop offset="0.44" stop-color="#007735"/><stop offset="1" stop-color="#514036"/></radialGradient><radialGradient id="Безымянный_градиент_8" cx="152.01" cy="9.99" r="2.71" gradientUnits="userSpaceOnUse"><stop offset="0.49" stop-color="#063"/><stop offset="1" stop-color="#514036"/></radialGradient><radialGradient id="Безымянный_градиент_62" cx="131.48" cy="34.02" r="7.83" gradientUnits="userSpaceOnUse"><stop offset="0.49" stop-color="#007735"/><stop offset="1" stop-color="#514036"/></radialGradient><radialGradient id="Безымянный_градиент_8-2" cx="123.98" cy="29.01" r="2.66" xlink:href="#Безымянный_градиент_8"/><radialGradient id="Безымянный_градиент_67" cx="177.16" cy="29.43" r="7.9" xlink:href="#Безымянный_градиент_62"/><radialGradient id="Безымянный_градиент_9" cx="184.03" cy="23.81" r="2.66" gradientUnits="userSpaceOnUse"><stop offset="0.86" stop-color="#063"/><stop offset="1" stop-color="#514036"/></radialGradient><radialGradient id="Безымянный_градиент_8-3" cx="179.6" cy="58.06" r="7.77" xlink:href="#Безымянный_градиент_8"/><radialGradient id="Безымянный_градиент_9-2" cx="187.29" cy="62.53" r="2.66" xlink:href="#Безымянный_градиент_9"/><radialGradient id="Безымянный_градиент_64" cx="134.39" cy="67.36" r="7.87" xlink:href="#Безымянный_градиент_62"/><radialGradient id="Безымянный_градиент_7" cx="127.16" cy="72.53" r="2.66" gradientUnits="userSpaceOnUse"><stop offset="0.44" stop-color="#063"/><stop offset="1" stop-color="#514036"/></radialGradient><radialGradient id="Безымянный_градиент_8-4" cx="156.32" cy="74.68" r="6.76" xlink:href="#Безымянный_градиент_8"/><radialGradient id="Безымянный_градиент_7-2" cx="156.42" cy="84.01" r="2.71" xlink:href="#Безымянный_градиент_7"/><radialGradient id="Безымянный_градиент_61" cx="143.06" cy="29.83" r="4.66" xlink:href="#Безымянный_градиент_62"/><radialGradient id="Безымянный_градиент_8-5" cx="140.36" cy="25.16" r="1.6" xlink:href="#Безымянный_градиент_8"/><radialGradient id="Безымянный_градиент_8-6" cx="170.65" cy="64.99" r="4.95" xlink:href="#Безымянный_градиент_8"/><radialGradient id="Безымянный_градиент_9-3" cx="174.3" cy="69.16" r="1.66" xlink:href="#Безымянный_градиент_9"/><radialGradient id="Безымянный_градиент_8-7" cx="174.69" cy="43.32" r="5.18" xlink:href="#Безымянный_градиент_8"/><radialGradient id="Безымянный_градиент_9-4" cx="180.94" cy="41.73" r="1.91" xlink:href="#Безымянный_градиент_9"/><radialGradient id="Безымянный_градиент_66" cx="163.23" cy="27.09" r="6.13" xlink:href="#Безымянный_градиент_62"/><radialGradient id="Безымянный_градиент_8-8" cx="166.18" cy="20.54" r="2.15" xlink:href="#Безымянный_градиент_8"/><radialGradient id="Безымянный_градиент_63" cx="134.8" cy="51.11" r="5.22" xlink:href="#Безымянный_градиент_62"/><radialGradient id="Безымянный_градиент_7-3" cx="128.51" cy="52.9" r="1.91" xlink:href="#Безымянный_градиент_7"/><linearGradient id="Безымянный_градиент_31" x1="151.91" y1="9.9" x2="151.41" y2="8.33" gradientTransform="translate(8.41 -41.34) rotate(15.95)" xlink:href="#Безымянный_градиент_32"/><linearGradient id="Безымянный_градиент_27" x1="105.55" y1="22.12" x2="107.07" y2="22.12" gradientUnits="userSpaceOnUse"><stop offset="0" stop-color="#2e241b"/><stop offset="0" stop-color="#213823"/><stop offset="0" stop-color="#016b36"/><stop offset="0" stop-color="#006d37"/><stop offset="1" stop-color="#2e241b"/></linearGradient><linearGradient id="Безымянный_градиент_18" x1="166.06" y1="18.19" x2="167.56" y2="15.8" gradientUnits="userSpaceOnUse"><stop offset="0" stop-color="#2e241b"/><stop offset="0.29" stop-color="#213823"/><stop offset="0.88" stop-color="#016b36"/><stop offset="0.9" stop-color="#006d37"/></linearGradient><linearGradient id="Безымянный_градиент_25" x1="109.74" y1="64.54" x2="112.15" y2="64.54" xlink:href="#Безымянный_градиент_27"/><linearGradient id="Безымянный_градиент_23" x1="139.41" y1="76.29" x2="139.7" y2="78.69" gradientUnits="userSpaceOnUse"><stop offset="0" stop-color="#2e241b"/><stop offset="0.18" stop-color="#213823"/><stop offset="0.54" stop-color="#016b36"/><stop offset="0.55" stop-color="#006d37"/></linearGradient><linearGradient id="Безымянный_градиент_20" x1="168.58" y1="54.43" x2="170.8" y2="55.59" xlink:href="#Безымянный_градиент_18"/><linearGradient id="Безымянный_градиент_29" x1="122.35" y1="17.83" x2="123.2" y2="18.14" gradientUnits="userSpaceOnUse"><stop offset="0.08" stop-color="#006d37"/><stop offset="1" stop-color="#2e241b"/></linearGradient><linearGradient id="Безымянный_градиент_16" x1="149.52" y1="13.45" x2="150.51" y2="11.8" gradientUnits="userSpaceOnUse"><stop offset="0" stop-color="#514036"/><stop offset="0.12" stop-color="#3d4935"/><stop offset="0.37" stop-color="#0a6133"/><stop offset="0.41" stop-color="#063"/></linearGradient><linearGradient id="Безымянный_градиент_19" x1="162.56" y1="34.55" x2="165.35" y2="34.55" xlink:href="#Безымянный_градиент_18"/><linearGradient id="Безымянный_градиент_26" x1="110.39" y1="46.36" x2="111.85" y2="46.36" xlink:href="#Безымянный_градиент_27"/><linearGradient id="Безымянный_градиент_21" x1="156.66" y1="61.15" x2="157.21" y2="61.87" gradientUnits="userSpaceOnUse"><stop offset="0" stop-color="#2e241b"/><stop offset="0.32" stop-color="#213823"/><stop offset="0.98" stop-color="#016b36"/><stop offset="1" stop-color="#006d37"/></linearGradient><linearGradient id="Безымянный_градиент_32-3" x1="131.41" y1="58.97" x2="131.67" y2="61.18" xlink:href="#Безымянный_градиент_32"/><linearGradient id="Безымянный_градиент_36" x1="117.24" y1="38.07" x2="115.65" y2="37.01" gradientUnits="userSpaceOnUse"><stop offset="0.11" stop-color="#372b22"/><stop offset="0.37" stop-color="#283f29"/><stop offset="0.9" stop-color="#00723a"/></linearGradient></defs><path class="cls-1" d="M36.32,67.25H32.94v-47L28.38,42.73H25.06L20.49,20.24v47H17.11V12.43h4.56l5.06,25,5-25h4.56Z" transform="translate(-16.98 -7.17)"/><path class="cls-1" d="M52.91,25.79q4.61,0,7.32,5.83T63,47q0,9.6-2.72,15.46T52.91,68.3q-4.63,0-7.34-5.85T42.86,47q0-9.55,2.72-15.37T52.91,25.79Zm0,37.23q3,0,4.79-4.67a32.12,32.12,0,0,0,1.76-11.3,32.5,32.5,0,0,0-1.73-11.5Q56,31,52.91,31c-2.08,0-3.68,1.48-4.82,4.45a32.46,32.46,0,0,0-1.72,11.56,32.35,32.35,0,0,0,1.74,11.36Q49.83,63,52.91,63Z" transform="translate(-16.98 -7.17)"/><path class="cls-1" d="M86.89,67.25H83.54V41.3c0-3.6-.31-6.21-1-7.83S81,31,79.6,31Q76.54,31,73,38V67.25H69.69V26.77H73v5.94q3.6-6.91,7.58-6.92,6.27,0,6.28,13.76Z" transform="translate(-16.98 -7.17)"/><path class="cls-1" d="M102.64,67.25H99.3V32H92.73V26.77h9.91ZM101,11.46c.62,0,1.16.41,1.6,1.22a6,6,0,0,1,.67,2.94,6.18,6.18,0,0,1-.66,3,1.88,1.88,0,0,1-1.61,1.2q-.88,0-1.56-1.26a6.12,6.12,0,0,1-.67-2.93,6,6,0,0,1,.67-2.92C99.91,11.87,100.43,11.46,101,11.46Z" transform="translate(-16.98 -7.17)"/><path class="cls-1" d="M126.76,65.43a10.47,10.47,0,0,1-6.62,2.79q-6,0-6-11.46V32h-4.29V26.77h4.29V15.69h3.26V26.77H125V32h-7.58V55.17a14.6,14.6,0,0,0,.9,5.73c.59,1.36,1.41,2,2.44,2a8.48,8.48,0,0,0,5.42-2.22Z" transform="translate(-16.98 -7.17)"/><path class="cls-1" d="M203.54,27.85l-1.35,5.83a6.63,6.63,0,0,0-3.81-1.75,4,4,0,0,0-2.9,1.54,14.85,14.85,0,0,0-2.6,4.39,20.56,20.56,0,0,0-1.19,3.2V67.25h-3.32V26.77h3.32V35q2.69-9.16,6.94-9.17A7.48,7.48,0,0,1,203.54,27.85Z" transform="translate(-16.98 -7.17)"/><path class="cls-1" d="M220,67.25h-3.34V32H210V26.77H220Zm-1.63-55.79a1.91,1.91,0,0,1,1.61,1.22,6.14,6.14,0,0,1,.67,2.94,6.18,6.18,0,0,1-.66,3,1.88,1.88,0,0,1-1.62,1.2c-.58,0-1.1-.42-1.55-1.26a6.12,6.12,0,0,1-.67-2.93,6,6,0,0,1,.67-2.92C217.22,11.87,217.74,11.46,218.32,11.46Z" transform="translate(-16.98 -7.17)"/><path class="cls-1" d="M245.85,67.25h-3.34V41.3a23.09,23.09,0,0,0-1-7.83c-.63-1.62-1.63-2.43-3-2.43Q235.5,31,232,38V67.25h-3.34V26.77H232v5.94q3.6-6.91,7.58-6.92,6.28,0,6.28,13.76Z" transform="translate(-16.98 -7.17)"/><path class="cls-1" d="M262.17,52Q259,54.74,259,56.84a2.69,2.69,0,0,0,.72,1.9,2.52,2.52,0,0,0,2,.78l7.52-.39a4.66,4.66,0,0,1,4.16,2.37,12.68,12.68,0,0,1,1.49,6.72q0,6.89-3.38,11a10.06,10.06,0,0,1-7.91,4.08,7.54,7.54,0,0,1-6.06-2.82,11,11,0,0,1-2.36-7.28,10.73,10.73,0,0,1,3.64-8.2,8,8,0,0,1-3-6.3c0-2.84,1.3-5.5,3.9-8a13.24,13.24,0,0,1-2.76-5.13,22.64,22.64,0,0,1-1-6.64,18.43,18.43,0,0,1,2.14-9.39c1.43-2.44,3.21-3.67,5.35-3.67a6,6,0,0,1,4.18,1.75l6.62-1.83V31.7H270a24.35,24.35,0,0,1,1,7.23,18.94,18.94,0,0,1-2.12,9.32c-1.41,2.54-3.21,3.81-5.38,3.81A10.8,10.8,0,0,1,262.17,52Zm1.43,26.58a7.21,7.21,0,0,0,5.62-2.66,9.67,9.67,0,0,0,2.33-6.59q0-4-3.3-4c-.73,0-2,.08-3.77.23-1.13.11-2,.16-2.66.16-.31,0-.8.46-1.46,1.4a12,12,0,0,0-1.53,2.81,8.43,8.43,0,0,0-.52,2.94,6,6,0,0,0,1.46,4.06A4.83,4.83,0,0,0,263.6,78.56Zm-.13-31.2c1.23,0,2.23-.77,3-2.31a13.44,13.44,0,0,0,1.17-6,13.56,13.56,0,0,0-1.14-6.13,3.41,3.41,0,0,0-3-2.22c-1.18,0-2.18.77-3,2.31a13.12,13.12,0,0,0-1.21,6,13.19,13.19,0,0,0,1.21,6C261.29,46.57,262.29,47.36,263.47,47.36Z" transform="translate(-16.98 -7.17)"/><ellipse class="cls-2" cx="136.95" cy="41.85" rx="22.78" ry="22.44"/><circle class="cls-3" cx="136.8" cy="26.33" r="2.71"/><circle class="cls-4" cx="146.61" cy="30.97" r="2.71"/><circle class="cls-5" cx="128.13" cy="35.32" r="3.16"/><circle class="cls-6" cx="135.13" cy="39.49" r="1.83"/><circle class="cls-7" cx="123.82" cy="47.54" r="1.72"/><circle class="cls-8" cx="145.91" cy="38.17" r="2.01"/><circle class="cls-9" cx="149.32" cy="48.87" r="2.71"/><circle class="cls-10" cx="134.43" cy="50.05" r="2.92"/><circle class="cls-11" cx="141.89" cy="53.59" r="2.01"/><path class="cls-12" d="M154.66,9.51a2.3,2.3,0,0,1,.06.7l-.08.35,0,.28-.15.33-.27.43A2.9,2.9,0,0,1,152,12.75,2.94,2.94,0,0,1,149.3,10a1.74,1.74,0,0,1,0-.29,2.69,2.69,0,0,1,5.34-.19Z" transform="translate(-16.98 -7.17)"/><path class="cls-13" d="M151.08,11.11l-1.78-.33s-.16.62.52,3.4a18.84,18.84,0,0,1,.9,5.13,16.91,16.91,0,0,1-.54,4,16.8,16.8,0,0,0-.36,4.32c.11.88.32,2,3.56,1.46s.5-4.76,0-8.2c-.58-3.93-.34-5.83-.14-6.59a11.14,11.14,0,0,1,1.12-2.73l.16-.37.09-.21c-.46-.21-1.06-.41-1.33-.16s-.1.3-.22.44S152.41,11.62,151.08,11.11Z" transform="translate(-16.98 -7.17)"/><path class="cls-14" d="M151.08,10.64l-1.78-.32s-.16.61.52,3.34a18.11,18.11,0,0,1,.9,5,16.28,16.28,0,0,1-.54,4,16.2,16.2,0,0,0-.36,4.24c.11.87.32,1.94,3.56,1.44s.5-4.67,0-8c-.6-4-.38-5.75-.14-6.48a9,9,0,0,1,1.34-2.62l0-.89c-.5-.13-1.08-.2-1.35.11-.14.15-.1.3-.22.43S152.41,11.15,151.08,10.64Z" transform="translate(-16.98 -7.17)"/><path class="cls-12" d="M151.08,10.64" transform="translate(-16.98 -7.17)"/><path class="cls-12" d="M154.72,10.15" transform="translate(-16.98 -7.17)"/><path class="cls-15" d="M154.66,9.52a2.17,2.17,0,0,1,.06.68l-.08.35,0,.27-.15.33-.27.42A2.68,2.68,0,0,1,149.3,10a1.58,1.58,0,0,1,0-.28,2.69,2.69,0,0,1,5.34-.19Z" transform="translate(-16.98 -7.17)"/><path class="cls-12" d="M125.24,26.65a2.62,2.62,0,0,1,.6.36l.24.26.2.21.18.31.2.47a2.86,2.86,0,0,1-.3,2.42,2.94,2.94,0,0,1-3.82.63,1.66,1.66,0,0,1-.22-.17,2.7,2.7,0,0,1,2.92-4.49Z" transform="translate(-16.98 -7.17)"/><path class="cls-16" d="M124.48,30.51l-1.29,1.26s.42.49,3.09,1.53A19,19,0,0,1,131,35.52a17.16,17.16,0,0,1,3,2.75,16.88,16.88,0,0,0,3.33,2.78c.78.42,1.8.87,3.24-2.07s-3.6-3.15-6.71-4.71c-3.54-1.79-5-3.08-5.47-3.68a11,11,0,0,1-1.59-2.49l-.21-.34-.12-.2c-.44.26-1,.64-.9,1,0,.2.19.26.24.43S125.67,29.71,124.48,30.51Z" transform="translate(-16.98 -7.17)"/><path class="cls-17" d="M124.1,30.24l-1.29,1.26s.41.49,3,1.5a18.09,18.09,0,0,1,4.63,2.16,16.35,16.35,0,0,1,2.93,2.72,16.32,16.32,0,0,0,3.26,2.73c.77.41,1.78.85,3.23-2.08s-3.54-3.1-6.59-4.63c-3.64-1.83-4.92-3-5.38-3.61a8.93,8.93,0,0,1-1.37-2.61l-.7-.55c-.4.34-.79.77-.7,1.17,0,.2.19.25.24.42S125.28,29.44,124.1,30.24Z" transform="translate(-16.98 -7.17)"/><path class="cls-12" d="M124.1,30.24" transform="translate(-16.98 -7.17)"/><path class="cls-12" d="M125.79,27" transform="translate(-16.98 -7.17)"/><path class="cls-18" d="M125.13,26.58a2.23,2.23,0,0,1,.59.35l.24.26.19.2.18.3.19.48a2.85,2.85,0,0,1-.32,2.4,2.89,2.89,0,0,1-3.77.66,1.66,1.66,0,0,1-.22-.17,2.84,2.84,0,0,1-.44-3.61A2.87,2.87,0,0,1,125.13,26.58Z" transform="translate(-16.98 -7.17)"/><path class="cls-12" d="M186.05,25.57a2.19,2.19,0,0,1-.51.48l-.32.17-.25.12-.35.1-.51.06a2.89,2.89,0,0,1-2.24-1,2.93,2.93,0,0,1,.45-3.84,2.29,2.29,0,0,1,.23-.17,2.69,2.69,0,0,1,3.5,4Z" transform="translate(-16.98 -7.17)"/><path class="cls-19" d="M182.56,23.78l-.86-1.58s-.59.26-2.33,2.54A19,19,0,0,1,176,28.65a17,17,0,0,1-3.48,2.11,17.28,17.28,0,0,0-3.59,2.43c-.61.64-1.33,1.49,1.1,3.69s4-2.59,6.38-5.15c2.7-2.91,4.33-3.92,5-4.24a11.09,11.09,0,0,1,2.83-.84l.39-.11.23-.06c-.13-.49-.35-1.09-.72-1.14-.19,0-.29.11-.48.11S183,25.14,182.56,23.78Z" transform="translate(-16.98 -7.17)"/><path class="cls-20" d="M182.92,23.49l-.86-1.58s-.58.25-2.28,2.5a18.48,18.48,0,0,1-3.35,3.86A16.8,16.8,0,0,1,173,30.33a16.1,16.1,0,0,0-3.53,2.38c-.6.63-1.31,1.47,1.11,3.68s4-2.55,6.27-5.06c2.76-3,4.24-3.9,4.95-4.17a9.08,9.08,0,0,1,2.89-.6l.72-.52c-.21-.48-.52-1-.93-1-.2,0-.3.11-.47.1S183.36,24.84,182.92,23.49Z" transform="translate(-16.98 -7.17)"/><path class="cls-12" d="M182.92,23.49" transform="translate(-16.98 -7.17)"/><path class="cls-12" d="M185.59,26" transform="translate(-16.98 -7.17)"/><path class="cls-21" d="M186,25.57a2.19,2.19,0,0,1-.5.48l-.31.15-.25.13-.34.09-.51.06a2.91,2.91,0,0,1-2.22-1,2.92,2.92,0,0,1,.41-3.82,2.16,2.16,0,0,1,.22-.16,2.7,2.7,0,0,1,3.5,4Z" transform="translate(-16.98 -7.17)"/><path class="cls-12" d="M186.29,65a2.08,2.08,0,0,1-.62-.32l-.26-.24-.2-.2L185,64l-.22-.46a2.86,2.86,0,0,1,.16-2.43,2.92,2.92,0,0,1,3.77-.85,1.94,1.94,0,0,1,.24.16A2.69,2.69,0,0,1,186.29,65Z" transform="translate(-16.98 -7.17)"/><path class="cls-22" d="M186.82,61.14,188,59.81s-.44-.47-3.17-1.35A18.82,18.82,0,0,1,180,56.52a17,17,0,0,1-3.14-2.58,16.08,16.08,0,0,0-3.48-2.58c-.8-.38-1.85-.77-3.12,2.25s3.78,2.93,7,4.32c3.64,1.58,5.14,2.79,5.68,3.35a11,11,0,0,1,1.72,2.4l.23.33.14.19c.42-.29.91-.69.84-1.05,0-.2-.21-.25-.27-.42S185.68,62,186.82,61.14Z" transform="translate(-16.98 -7.17)"/><path class="cls-23" d="M187.22,61.39l1.21-1.33s-.43-.47-3.11-1.33-3.41-1-4.75-1.89a16.13,16.13,0,0,1-3.08-2.54,16.15,16.15,0,0,0-3.42-2.54c-.79-.36-1.82-.75-3.1,2.27s3.71,2.89,6.85,4.24c3.74,1.61,5.08,2.71,5.57,3.29a8.91,8.91,0,0,1,1.52,2.53l.73.51c.38-.36.75-.82.63-1.21-.06-.2-.2-.24-.26-.41S186.09,62.26,187.22,61.39Z" transform="translate(-16.98 -7.17)"/><path class="cls-12" d="M187.22,61.39" transform="translate(-16.98 -7.17)"/><path class="cls-12" d="M185.72,64.75" transform="translate(-16.98 -7.17)"/><path class="cls-24" d="M186.28,65a2.64,2.64,0,0,1-.61-.31l-.25-.25-.2-.19L185,64l-.22-.45a2.68,2.68,0,0,1,3.91-3.3,1.4,1.4,0,0,1,.23.16,2.84,2.84,0,0,1,.65,3.57A2.87,2.87,0,0,1,186.28,65Z" transform="translate(-16.98 -7.17)"/><path class="cls-12" d="M125.25,70.65a2.76,2.76,0,0,1,.53-.45l.33-.14.26-.11.35-.08.52,0a2.9,2.9,0,0,1,2.18,1.09,3,3,0,0,1-.68,3.81c-.06,0-.13.09-.25.15a2.87,2.87,0,0,1-3.58-.76A2.9,2.9,0,0,1,125.25,70.65Z" transform="translate(-16.98 -7.17)"/><path class="cls-22" d="M128.62,72.65l.76,1.64s.61-.23,2.48-2.39a18.5,18.5,0,0,1,3.66-3.7,17.32,17.32,0,0,1,3.59-1.9,16.33,16.33,0,0,0,3.74-2.2c.65-.6,1.42-1.41-.87-3.75s-4.17,2.34-6.69,4.75c-2.87,2.74-4.56,3.65-5.29,3.93a11.5,11.5,0,0,1-2.87.66l-.4.08-.23,0c.1.5.28,1.11.65,1.18.19,0,.3-.09.48-.08S128.27,71.27,128.62,72.65Z" transform="translate(-16.98 -7.17)"/><path class="cls-25" d="M128.24,72.92l.76,1.64s.6-.22,2.43-2.36A18.31,18.31,0,0,1,135,68.55a16.68,16.68,0,0,1,3.53-1.85,15.93,15.93,0,0,0,3.67-2.16c.64-.59,1.4-1.39-.89-3.73s-4.1,2.29-6.56,4.66c-2.94,2.82-4.47,3.63-5.2,3.86a9,9,0,0,1-2.92.42l-.75.47c.19.49.47,1,.87,1,.2,0,.3-.09.48-.08S127.88,71.54,128.24,72.92Z" transform="translate(-16.98 -7.17)"/><path class="cls-12" d="M128.24,72.92" transform="translate(-16.98 -7.17)"/><path class="cls-12" d="M125.73,70.24" transform="translate(-16.98 -7.17)"/><path class="cls-26" d="M125.25,70.65a2.35,2.35,0,0,1,.53-.44l.32-.14.26-.11.35-.07.51,0a2.68,2.68,0,0,1,1.51,4.89,1.84,1.84,0,0,1-.23.15,2.7,2.7,0,0,1-3.25-4.25Z" transform="translate(-16.98 -7.17)"/><path class="cls-12" d="M153.77,84.49a2.6,2.6,0,0,1-.05-.7l.07-.35.06-.28.14-.33.28-.43a2.87,2.87,0,0,1,2.15-1.15A2.93,2.93,0,0,1,159.13,84c0,.07,0,.16,0,.29a2.69,2.69,0,0,1-5.35.19Z" transform="translate(-16.98 -7.17)"/><path class="cls-22" d="M157.36,82.89l1.77.33s.17-.62-.51-3.4a18.46,18.46,0,0,1-.9-5.13,17.42,17.42,0,0,1,.53-4,16.89,16.89,0,0,0,.37-4.32c-.11-.88-.33-2-3.56-1.46s-.51,4.76,0,8.2c.57,3.93.34,5.83.14,6.59a10.72,10.72,0,0,1-1.13,2.73l-.16.37-.09.21c.47.21,1.07.41,1.34.16s.1-.3.21-.44S156,82.38,157.36,82.89Z" transform="translate(-16.98 -7.17)"/><path class="cls-27" d="M157.36,83.36l1.77.32s.17-.61-.51-3.34a17.74,17.74,0,0,1-.9-5,16.77,16.77,0,0,1,.53-4,16.29,16.29,0,0,0,.37-4.24c-.11-.87-.33-1.94-3.56-1.44s-.51,4.67,0,8c.6,4,.37,5.75.14,6.48a9.21,9.21,0,0,1-1.35,2.62l0,.89c.51.13,1.09.2,1.36-.11.14-.15.1-.3.21-.43S156,82.85,157.36,83.36Z" transform="translate(-16.98 -7.17)"/><path class="cls-12" d="M157.36,83.36" transform="translate(-16.98 -7.17)"/><path class="cls-12" d="M153.71,83.85" transform="translate(-16.98 -7.17)"/><path class="cls-28" d="M153.77,84.48a2.46,2.46,0,0,1-.05-.68l.07-.35.06-.27.14-.33.28-.42a2.87,2.87,0,0,1,2.15-1.13A2.9,2.9,0,0,1,159.13,84c0,.07,0,.16,0,.28a2.7,2.7,0,0,1-5.35.19Z" transform="translate(-16.98 -7.17)"/><path class="cls-12" d="M141.58,24.19a1.44,1.44,0,0,1,.24.34l.07.2.05.17,0,.21v.31a1.6,1.6,0,0,1-3,.63.94.94,0,0,1-.08-.15,1.61,1.61,0,0,1,2.7-1.71Z" transform="translate(-16.98 -7.17)"/><path class="cls-13" d="M140.22,26.1l-1,.36a6,6,0,0,0,1.3,1.6,11.36,11.36,0,0,1,2,2.37,10.1,10.1,0,0,1,.94,2.24A10,10,0,0,0,144.57,35c.32.42.76.92,2.28-.32s-1.18-2.6-2.48-4.22a11,11,0,0,1-2.07-3.36,6.4,6.4,0,0,1-.24-1.74l0-.24,0-.14c-.3,0-.67.11-.74.32s0,.19,0,.29S141.06,26,140.22,26.1Z" transform="translate(-16.98 -7.17)"/><path class="cls-29" d="M140.08,25.85l-1,.37s.1.37,1.28,1.57a10.49,10.49,0,0,1,2,2.32,9.93,9.93,0,0,1,.92,2.2,9.33,9.33,0,0,0,1.1,2.3c.31.41.75.9,2.27-.33s-1.16-2.57-2.44-4.16a9.52,9.52,0,0,1-2-3.29,5.27,5.27,0,0,1-.09-1.76l-.25-.47c-.3.09-.62.23-.67.46s0,.19,0,.29S140.91,25.71,140.08,25.85Z" transform="translate(-16.98 -7.17)"/><path class="cls-12" d="M140.08,25.85" transform="translate(-16.98 -7.17)"/><path class="cls-12" d="M141.8,24.5" transform="translate(-16.98 -7.17)"/><path class="cls-30" d="M141.58,24.12a1.44,1.44,0,0,1,.24.34l.07.2.05.16,0,.21v.3a1.6,1.6,0,0,1-3,.65,1.13,1.13,0,0,1-.07-.15,1.61,1.61,0,0,1,2.69-1.71Z" transform="translate(-16.98 -7.17)"/><path class="cls-12" d="M173.24,70.46a1.8,1.8,0,0,1-.31-.31l-.11-.19-.08-.16-.07-.21,0-.32a1.68,1.68,0,0,1,3-1.22l.11.14a1.79,1.79,0,0,1-.27,2.27A1.81,1.81,0,0,1,173.24,70.46Z" transform="translate(-16.98 -7.17)"/><path class="cls-22" d="M174.29,68.24l1-.57s-.17-.36-1.63-1.4a11.47,11.47,0,0,1-2.51-2.06,10.28,10.28,0,0,1-1.39-2.13,10.36,10.36,0,0,0-1.59-2.19c-.41-.37-1-.8-2.29.76s1.71,2.46,3.35,3.88A11.41,11.41,0,0,1,172,67.59a7,7,0,0,1,.58,1.76l.08.24,0,.14c.31-.09.67-.24.7-.47s-.08-.19-.08-.3S173.45,68.54,174.29,68.24Z" transform="translate(-16.98 -7.17)"/><path class="cls-31" d="M174.48,68.46l1-.57s-.17-.35-1.61-1.37a11.32,11.32,0,0,1-2.47-2A10.15,10.15,0,0,1,170,62.41a10.35,10.35,0,0,0-1.56-2.16c-.4-.36-.95-.78-2.27.77s1.66,2.42,3.28,3.82a10.05,10.05,0,0,1,2.71,3,5.71,5.71,0,0,1,.43,1.8l.34.44c.29-.15.59-.35.6-.6s-.08-.19-.08-.3S173.64,68.77,174.48,68.46Z" transform="translate(-16.98 -7.17)"/><path class="cls-12" d="M174.48,68.46" transform="translate(-16.98 -7.17)"/><path class="cls-12" d="M173,70.18" transform="translate(-16.98 -7.17)"/><path class="cls-32" d="M173.24,70.46a1.8,1.8,0,0,1-.31-.31l-.1-.19-.08-.15-.07-.21,0-.32a1.78,1.78,0,0,1,.56-1.41,1.83,1.83,0,0,1,2.39.18,1.36,1.36,0,0,1,.1.14,1.77,1.77,0,0,1-.28,2.25A1.8,1.8,0,0,1,173.24,70.46Z" transform="translate(-16.98 -7.17)"/><path class="cls-12" d="M181.73,43.46a2,2,0,0,1-.47.16h-.45l-.25,0-.35-.11a1.89,1.89,0,0,1,.25-3.61,1.13,1.13,0,0,1,.2-.05,2,2,0,0,1,2.17,1.41A2.06,2.06,0,0,1,181.73,43.46Z" transform="translate(-16.98 -7.17)"/><path class="cls-22" d="M180,41.29,179.92,40a6.8,6.8,0,0,0-2.24,1,13.19,13.19,0,0,1-3.35,1.51,11.7,11.7,0,0,1-2.85.34,12.14,12.14,0,0,0-3,.52c-.58.23-1.29.57-.37,2.69s3.34-.49,5.61-1.44a12.67,12.67,0,0,1,4.48-1.26,7.86,7.86,0,0,1,2.07.29l.28,0,.16,0c.06-.36.09-.8-.13-.94s-.22,0-.34-.07S179.89,42.29,180,41.29Z" transform="translate(-16.98 -7.17)"/><path class="cls-33" d="M180.33,41.2l-.09-1.27a6.71,6.71,0,0,0-2.2.94,12.73,12.73,0,0,1-3.29,1.51,11.79,11.79,0,0,1-2.8.32,11.72,11.72,0,0,0-3,.5c-.57.23-1.27.57-.36,2.69s3.29-.48,5.51-1.42c2.65-1.12,3.86-1.26,4.4-1.23a6.16,6.16,0,0,1,2,.46l.62-.12c0-.37-.05-.78-.31-.91s-.22,0-.33-.07S180.22,42.2,180.33,41.2Z" transform="translate(-16.98 -7.17)"/><path class="cls-12" d="M180.33,41.2" transform="translate(-16.98 -7.17)"/><path class="cls-12" d="M181.3,43.61" transform="translate(-16.98 -7.17)"/><path class="cls-34" d="M181.72,43.46a1.9,1.9,0,0,1-.45.16h-.45l-.25,0-.34-.11a1.89,1.89,0,0,1,.23-3.6.69.69,0,0,1,.2,0,2,2,0,0,1,2.13,1.41A2,2,0,0,1,181.72,43.46Z" transform="translate(-16.98 -7.17)"/><path class="cls-12" d="M168.26,21.14a1.86,1.86,0,0,1-.21.52l-.17.23-.14.18-.22.19-.36.21a2.3,2.3,0,0,1-1.95.07,2.35,2.35,0,0,1-1-2.95.83.83,0,0,1,.11-.2,2.29,2.29,0,0,1,2.82-.83A2.31,2.31,0,0,1,168.26,21.14Z" transform="translate(-16.98 -7.17)"/><path class="cls-16" d="M165.11,21,164,20.16a7.64,7.64,0,0,0-.83,2.64,14.78,14.78,0,0,1-1.17,4,13.41,13.41,0,0,1-1.81,2.72,13.48,13.48,0,0,0-1.78,3c-.24.67-.47,1.54,2,2.31s2-3.25,2.89-5.91a14.68,14.68,0,0,1,2.23-4.81,9.1,9.1,0,0,1,1.77-1.57l.25-.21.14-.12c-.26-.32-.62-.67-.91-.59s-.17.19-.31.25S165.89,21.87,165.11,21Z" transform="translate(-16.98 -7.17)"/><path class="cls-35" d="M165.27,20.69l-1.16-.86a7.22,7.22,0,0,0-.81,2.59,14.35,14.35,0,0,1-1.13,3.95A13.29,13.29,0,0,1,160.39,29,12.55,12.55,0,0,0,158.63,32c-.23.66-.46,1.51,2.06,2.29s2-3.19,2.84-5.81c1-3.12,1.76-4.28,2.18-4.72a7.14,7.14,0,0,1,1.9-1.41l.35-.63c-.32-.27-.71-.53-1-.4s-.18.18-.31.24S166.06,21.52,165.27,20.69Z" transform="translate(-16.98 -7.17)"/><path class="cls-12" d="M165.27,20.69" transform="translate(-16.98 -7.17)"/><path class="cls-12" d="M168.08,21.62" transform="translate(-16.98 -7.17)"/><path class="cls-36" d="M168.26,21.15a2.35,2.35,0,0,1-.2.51l-.18.22-.14.18-.22.18-.35.21a2.15,2.15,0,0,1-2.94-2.86,1.52,1.52,0,0,1,.11-.2,2.28,2.28,0,0,1,2.8-.8A2.32,2.32,0,0,1,168.26,21.15Z" transform="translate(-16.98 -7.17)"/><path class="cls-12" d="M127.77,51.16a2.23,2.23,0,0,1,.46-.17l.26,0h.2l.25,0,.35.1a2,2,0,0,1,1.19,1.24,2.06,2.06,0,0,1-1.34,2.38l-.2,0a2,2,0,0,1-2.2-1.35A2,2,0,0,1,127.77,51.16Z" transform="translate(-16.98 -7.17)"/><path class="cls-37" d="M129.56,53.29l.12,1.27a6.81,6.81,0,0,0,2.21-1,13.57,13.57,0,0,1,3.3-1.61,12.18,12.18,0,0,1,2.84-.42,11.47,11.47,0,0,0,3-.6c.57-.24,1.27-.6.29-2.7s-3.32.59-5.56,1.6a12.6,12.6,0,0,1-4.45,1.38,7.83,7.83,0,0,1-2.07-.23l-.28,0-.17,0c-.05.36-.07.81.16.94s.22,0,.34.06S129.64,52.28,129.56,53.29Z" transform="translate(-16.98 -7.17)"/><path class="cls-38" d="M129.24,53.38l.12,1.27a6.57,6.57,0,0,0,2.17-1,13,13,0,0,1,3.25-1.59,11.68,11.68,0,0,1,2.79-.41,11.23,11.23,0,0,0,3-.58c.56-.24,1.25-.6.28-2.7s-3.27.58-5.47,1.58c-2.62,1.19-3.83,1.37-4.37,1.36a6.54,6.54,0,0,1-2-.41l-.61.14c0,.37.07.78.33.9s.23,0,.34.06S129.32,52.38,129.24,53.38Z" transform="translate(-16.98 -7.17)"/><path class="cls-12" d="M129.24,53.38" transform="translate(-16.98 -7.17)"/><path class="cls-12" d="M128.19,51" transform="translate(-16.98 -7.17)"/><path class="cls-39" d="M127.68,51.19a2,2,0,0,1,.45-.17l.25,0h.2l.25,0,.34.11a1.89,1.89,0,0,1-.13,3.61l-.19,0a2,2,0,0,1-2.18-1.35A2,2,0,0,1,127.68,51.19Z" transform="translate(-16.98 -7.17)"/><ellipse class="cls-40" cx="151.73" cy="9.35" rx="1.58" ry="0.79" transform="translate(-13.71 34.88) rotate(-15.95)"/><ellipse class="cls-41" cx="106.31" cy="22.12" rx="0.76" ry="1.82"/><circle class="cls-42" cx="167.04" cy="16.63" r="1.83"/><circle class="cls-43" cx="111.07" cy="64.54" r="1.21"/><circle class="cls-44" cx="139.44" cy="76.51" r="1.83"/><circle class="cls-45" cx="170.03" cy="55.18" r="1.83"/><ellipse class="cls-46" cx="122.77" cy="17.98" rx="0.47" ry="0.94"/><ellipse class="cls-47" cx="149.76" cy="13.05" rx="0.91" ry="1.03"/><circle class="cls-48" cx="163.96" cy="34.55" r="1.4"/><circle class="cls-49" cx="111.12" cy="46.36" r="0.73"/><circle class="cls-50" cx="157.18" cy="61.83" r="1.4"/><circle class="cls-51" cx="131.51" cy="59.83" r="1.4"/><circle class="cls-52" cx="116.63" cy="37.66" r="1.4"/></svg>