<?xml version="1.0" encoding="UTF-8" standalone="no"?> <!-- Created with Vectornator for iOS (http://vectornator.io/) --><!DOCTYPE svg PUBLIC "-//W3C//DTD SVG 1.1//EN" "http://www.w3.org/Graphics/SVG/1.1/DTD/svg11.dtd">
<svg height="100%" style="fill-rule:evenodd;clip-rule:evenodd;stroke-linecap:round;stroke-linejoin:round;" xmlns:xlink="http://www.w3.org/1999/xlink" xmlns="http://www.w3.org/2000/svg" xml:space="preserve" width="100%" xmlns:vectornator="http://vectornator.io" version="1.1" viewBox="0 -20 292 94">
<metadata>
<vectornator:setting key="DimensionsVisible" value="1"/>
<vectornator:setting key="SnapToPoints" value="1"/>
<vectornator:setting key="GuidesVisible" value="1"/>
<vectornator:setting key="RulersVisible" value="1"/>
<vectornator:setting key="CMYKEnabledKey" value="0"/>
<vectornator:setting key="SnapToEdges" value="1"/>
<vectornator:setting key="DisplayWhiteBackground" value="0"/>
<vectornator:setting key="SnapToGuides" value="1"/>
<vectornator:setting key="Units" value="Pixels"/>
<vectornator:setting key="DynamicGuides" value="1"/>
<vectornator:setting key="SnapToGrid" value="1"/>
<vectornator:setting key="New" value="1"/>
</metadata>
<defs/>
<g id="Слой 1" vectornator:layerName="Слой 1">
<g opacity="1">
<path d="M40.1494+289.881L40.1494+246.009L49.2275+246.009L49.2275+262.737L66.3717+262.737L66.3717+246.009L75.4795+246.009L75.4795+289.881L66.3717+289.881L66.3717+270.297L49.2275+270.297L49.2275+289.881L40.1494+289.881Z" opacity="1" fill="#00ac3b"/>
<path d="M87.7366+270.416L100.922+270.416C100.783+268.173+100.104+266.472+98.8833+265.311C97.663+264.15+96.1499+263.57+94.3443+263.57C92.3798+263.57+90.8569+264.185+89.7755+265.415C88.694+266.646+88.0144+268.312+87.7366+270.416ZM106.994+262.885C108.264+264.81+109.087+267.042+109.464+269.582C109.683+271.071+109.772+273.214+109.732+276.011L87.5283+276.011C87.6473+279.266+88.6692+281.548+90.594+282.857C91.7647+283.671+93.1735+284.077+94.8205+284.077C96.5666+284.077+97.9854+283.581+99.0768+282.589C99.672+282.053+100.198+281.309+100.654+280.357L109.316+280.357C109.097+282.282+108.095+284.236+106.309+286.22C103.531+289.375+99.6423+290.953+94.6419+290.953C90.5146+290.953+86.8735+289.624+83.7185+286.965C80.5635+284.306+78.986+279.98+78.986+273.987C78.986+268.372+80.4097+264.066+83.2571+261.07C86.1045+258.074+89.8003+256.575+94.3443+256.575C97.0429+256.575+99.4736+257.081+101.636+258.093C103.799+259.105+105.585+260.703+106.994+262.885Z" opacity="1" fill="#00ac3b"/>
<path d="M131.335+274.106C130.8+274.444+130.259+274.717+129.713+274.925C129.168+275.133+128.419+275.327+127.466+275.505L125.561+275.863C123.775+276.18+122.495+276.567+121.722+277.023C120.412+277.797+119.757+278.998+119.757+280.625C119.757+282.073+120.159+283.12+120.963+283.765C121.766+284.41+122.743+284.732+123.894+284.732C125.72+284.732+127.402+284.197+128.939+283.125C130.477+282.053+131.276+280.099+131.335+277.261L131.335+274.106ZM126.186+270.148C127.754+269.949+128.875+269.701+129.55+269.404C130.76+268.888+131.365+268.084+131.365+266.993C131.365+265.663+130.904+264.746+129.981+264.24C129.058+263.734+127.704+263.481+125.918+263.481C123.914+263.481+122.495+263.977+121.662+264.969C121.067+265.703+120.67+266.695+120.471+267.945L112.286+267.945C112.465+265.108+113.259+262.776+114.667+260.951C116.91+258.093+120.759+256.665+126.216+256.665C129.768+256.665+132.923+257.369+135.681+258.778C138.439+260.187+139.818+262.846+139.818+266.755L139.818+281.637C139.818+282.669+139.838+283.919+139.878+285.387C139.937+286.498+140.106+287.252+140.384+287.649C140.661+288.046+141.078+288.373+141.634+288.631L141.634+289.881L132.407+289.881C132.149+289.227+131.97+288.612+131.871+288.036C131.772+287.461+131.693+286.806+131.633+286.072C130.462+287.342+129.113+288.423+127.585+289.316C125.76+290.368+123.696+290.893+121.394+290.893C118.457+290.893+116.032+290.055+114.117+288.378C112.202+286.702+111.245+284.325+111.245+281.25C111.245+277.261+112.782+274.374+115.858+272.588C117.545+271.616+120.025+270.922+123.299+270.505L126.186+270.148Z" opacity="1" fill="#00ac3b"/>
<path d="M154.01+289.881L145.527+289.881L145.527+246.009L154.01+246.009L154.01+289.881Z" opacity="1" fill="#00ac3b"/>
<path d="M156.951+263.778L156.951+257.736L161.475+257.736L161.475+248.688L169.869+248.688L169.869+257.736L175.137+257.736L175.137+263.778L169.869+263.778L169.869+280.922C169.869+282.252+170.037+283.08+170.375+283.408C170.712+283.735+171.744+283.899+173.47+283.899C173.728+283.899+174.001+283.894+174.289+283.884C174.576+283.874+174.859+283.859+175.137+283.839L175.137+290.179L171.119+290.328C167.11+290.467+164.372+289.772+162.904+288.244C161.951+287.272+161.475+285.774+161.475+283.75L161.475+263.778L156.951+263.778Z" opacity="1" fill="#00ac3b"/>
<path d="M205.967+260.832C206.86+262.042+207.405+263.287+207.604+264.567C207.802+265.847+207.901+267.935+207.901+270.832L207.901+289.881L199.24+289.881L199.24+270.148C199.24+268.402+198.942+266.993+198.347+265.921C197.573+264.413+196.105+263.659+193.942+263.659C191.7+263.659+189.998+264.408+188.838+265.906C187.677+267.405+187.096+269.543+187.096+272.321L187.096+289.881L178.643+289.881L178.643+246.158L187.096+246.158L187.096+261.665C188.327+259.78+189.75+258.465+191.367+257.721C192.985+256.977+194.686+256.605+196.472+256.605C198.476+256.605+200.297+256.952+201.934+257.647C203.571+258.341+204.915+259.403+205.967+260.832Z" opacity="1" fill="#00ac3b"/>
</g>
<g opacity="1">
<path d="M12.6065+55.2943L12.6065+34.9141L16.8236+34.9141L16.8236+42.6845L24.7876+42.6845L24.7876+34.9141L29.0185+34.9141L29.0185+55.2943L24.7876+55.2943L24.7876+46.1964L16.8236+46.1964L16.8236+55.2943L12.6065+55.2943Z" opacity="1" fill="#00ac3b"/>
<path d="M34.7124+46.2518L40.8375+46.2518C40.773+45.2102+40.4573+44.4197+39.8904+43.8805C39.3235+43.3413+38.6206+43.0717+37.7818+43.0717C36.8693+43.0717+36.1618+43.3574+35.6595+43.9289C35.1571+44.5004+34.8414+45.2747+34.7124+46.2518ZM43.6581+42.7537C44.248+43.6478+44.6305+44.6848+44.8057+45.8646C44.9071+46.5559+44.9485+47.5514+44.9301+48.8511L34.6156+48.8511C34.6709+50.3628+35.1456+51.4228+36.0397+52.0312C36.5835+52.4091+37.238+52.5981+38.0031+52.5981C38.8142+52.5981+39.4733+52.3677+39.9802+51.9068C40.2568+51.6579+40.501+51.3122+40.713+50.8698L44.7365+50.8698C44.6351+51.7639+44.1697+52.6718+43.3401+53.5936C42.0496+55.0592+40.2429+55.792+37.9201+55.792C36.0028+55.792+34.3114+55.1744+32.8458+53.9393C31.3802+52.7041+30.6474+50.6947+30.6474+47.9109C30.6474+45.3023+31.3087+43.3021+32.6315+41.9102C33.9542+40.5184+35.671+39.8224+37.7818+39.8224C39.0354+39.8224+40.1646+40.0575+41.1693+40.5276C42.174+40.9977+43.0036+41.7397+43.6581+42.7537Z" opacity="1" fill="#00ac3b"/>
<path d="M54.9655+47.9662C54.7166+48.1229+54.4654+48.2497+54.2119+48.3465C53.9584+48.4432+53.6105+48.5331+53.168+48.6161L52.2831+48.782C51.4535+48.9295+50.859+49.1092+50.4995+49.3212C49.8912+49.6807+49.587+50.2384+49.587+50.9942C49.587+51.6671+49.7736+52.1533+50.1469+52.4529C50.5203+52.7525+50.9742+52.9023+51.5089+52.9023C52.3569+52.9023+53.1381+52.6534+53.8524+52.1556C54.5668+51.6579+54.9378+50.75+54.9655+49.4318L54.9655+47.9662ZM52.5735+46.1273C53.3017+46.0351+53.8225+45.9199+54.1359+45.7817C54.6982+45.542+54.9793+45.1687+54.9793+44.6617C54.9793+44.0441+54.765+43.6178+54.3364+43.3828C53.9077+43.1477+53.2786+43.0302+52.4491+43.0302C51.5181+43.0302+50.859+43.2606+50.4719+43.7215C50.1953+44.0626+50.011+44.5234+49.9188+45.1042L46.1165+45.1042C46.1995+43.786+46.5682+42.703+47.2227+41.8549C48.2642+40.5276+50.0525+39.8639+52.5873+39.8639C54.2373+39.8639+55.7029+40.1912+56.9841+40.8456C58.2654+41.5001+58.906+42.7352+58.906+44.5511L58.906+51.4643C58.906+51.9436+58.9152+52.5244+58.9337+53.2065C58.9613+53.7226+59.0397+54.0729+59.1687+54.2573C59.2978+54.4416+59.4913+54.5937+59.7494+54.7135L59.7494+55.2943L55.4632+55.2943C55.3434+54.9901+55.2604+54.7043+55.2143+54.437C55.1683+54.1697+55.1314+53.8655+55.1037+53.5245C54.5599+54.1144+53.9331+54.6168+53.2233+55.0316C52.3753+55.5201+51.4167+55.7644+50.3474+55.7644C48.9832+55.7644+47.8564+55.3749+46.9669+54.596C46.0774+53.8171+45.6326+52.7133+45.6326+51.2846C45.6326+49.4318+46.347+48.0907+47.7757+47.2611C48.5592+46.8094+49.7114+46.4868+51.2323+46.2932L52.5735+46.1273Z" opacity="1" fill="#00ac3b"/>
<path d="M65.4986+55.2943L61.558+55.2943L61.558+34.9141L65.4986+34.9141L65.4986+55.2943Z" opacity="1" fill="#00ac3b"/>
<path d="M66.8647+43.1685L66.8647+40.3617L68.9664+40.3617L68.9664+36.1584L72.8654+36.1584L72.8654+40.3617L75.3127+40.3617L75.3127+43.1685L72.8654+43.1685L72.8654+51.1325C72.8654+51.7501+72.9438+52.1349+73.1005+52.287C73.2572+52.4391+73.7365+52.5151+74.5384+52.5151C74.6583+52.5151+74.785+52.5128+74.9187+52.5082C75.0523+52.5036+75.1837+52.4967+75.3127+52.4875L75.3127+55.4325L73.4461+55.5017C71.5842+55.5662+70.3121+55.2436+69.63+54.5338C69.1876+54.0821+68.9664+53.3862+68.9664+52.446L68.9664+43.1685L66.8647+43.1685Z" opacity="1" fill="#00ac3b"/>
<path d="M89.6343+41.7996C90.0491+42.3619+90.3026+42.9403+90.3947+43.5349C90.4869+44.1294+90.533+45.0995+90.533+46.4453L90.533+55.2943L86.5095+55.2943L86.5095+46.1273C86.5095+45.3162+86.3712+44.6617+86.0947+44.164C85.7352+43.4634+85.0531+43.1131+84.0484+43.1131C83.0068+43.1131+82.2164+43.4611+81.6771+44.157C81.1379+44.853+80.8683+45.8462+80.8683+47.1366L80.8683+55.2943L76.9416+55.2943L76.9416+34.9832L80.8683+34.9832L80.8683+42.1868C81.4398+41.3111+82.1012+40.7004+82.8524+40.3548C83.6036+40.0091+84.394+39.8363+85.2236+39.8363C86.1546+39.8363+87.0003+39.9976+87.7608+40.3202C88.5212+40.6428+89.1457+41.136+89.6343+41.7996Z" opacity="1" fill="#00ac3b"/>
</g>
<g opacity="1">
<g opacity="1"/>
<path d="M103.166+69.504C102.99+69.1776+102.852+68.8237+102.756+68.4473C102.388+67.0206+102.836+65.421+103.896+64.3739C104.512+63.7673+105.227+63.3684+106.022+63.1935C107.757+62.813+109.411+61.7+110.679+60.0591L115.622+53.66L117.662+55.2349C116.459+56.7738+113.28+60.8501+112.072+62.4786C110.919+64.037+111.154+65.8366+111.29+66.9071C111.328+67.1878+111.367+67.421+111.356+67.6004C111.296+69.1379+110.423+70.5453+109.071+71.2749C108.045+71.8283+106.866+71.9493+105.755+71.6124C104.638+71.2784+103.719+70.5299+103.166+69.504Z" opacity="1" fill="#98ccfd"/>
<path d="M116.605+55.3705C115.186+57.1795+112.56+60.5564+111.468+62.0285C110.128+63.835+110.39+65.8209+110.548+67.0066C110.575+67.2059+110.61+67.4814+110.605+67.5711C110.557+68.8475+109.832+70.0079+108.718+70.6089C106.967+71.5537+104.774+70.8975+103.829+69.1463C103.683+68.8768+103.569+68.5775+103.485+68.2614C103.18+67.0882+103.553+65.7701+104.427+64.9105C104.935+64.4021+105.528+64.0755+106.185+63.9287C108.092+63.5085+109.896+62.3013+111.276+60.5199L115.758+54.7173L116.605+55.3705M118.722+55.1045L115.486+52.6027L110.083+59.5982C109.014+60.9774+107.566+62.0867+105.865+62.4556C104.981+62.6517+104.117+63.0974+103.366+63.8372C102.124+65.069+101.59+66.9427+102.025+68.6413C102.141+69.0802+102.301+69.4888+102.502+69.8618C103.844+72.3488+106.947+73.277+109.434+71.9353C111.082+71.0464+112.046+69.3754+112.116+67.6321C112.146+66.7461+111.402+64.6594+112.681+62.9259C114.182+60.8984+118.722+55.1045+118.722+55.1045Z" opacity="1" fill="#4788c7"/>
<path d="M127.268+47.7584L130.05+48.2646C132.023+48.6246+133.885+48.2691+135.286+47.2588C135.812+46.8816+136.429+46.6359+137.118+46.5249C138.557+46.2905+140.04+46.7949+140.983+47.8376C141.237+48.1221+141.458+48.4314+141.631+48.7526C142.746+50.8199+141.996+53.4457+139.961+54.61C138.913+55.2089+137.465+55.2276+136.093+54.6565C135.336+54.3429+134.773+53.9574+134.36+53.4777C133.161+52.0847+131.703+51.1923+130.145+50.9088L126.807+50.3014L127.268+47.7584Z" opacity="1" fill="#98ccfd"/>
<path d="M140.968+49.1104C141.89+50.8202+141.27+52.9941+139.588+53.9552C138.739+54.4399+137.538+54.4456+136.38+53.9601C135.734+53.6931+135.263+53.3785+134.933+52.9884C133.618+51.4567+132.01+50.4847+130.275+50.1699L127.684+49.6947L127.875+48.6351L129.915+49.0063C132.095+49.4021+134.158+48.9981+135.727+47.8773C136.16+47.5635+136.667+47.3634+137.239+47.2692C138.408+47.0801+139.659+47.5022+140.422+48.3476C140.635+48.5807+140.822+48.8409+140.968+49.1104M142.294+48.3948C142.096+48.0269+141.842+47.6687+141.539+47.3304C140.413+46.0853+138.651+45.5105+136.997+45.7806C136.153+45.9148+135.439+46.2268+134.843+46.6483C133.519+47.6035+131.792+47.8126+130.185+47.5228L126.661+46.8817L125.93+50.9082L130.007+51.6454C131.515+51.9225+132.788+52.8075+133.788+53.967C134.234+54.4957+134.875+54.9657+135.799+55.3505C137.256+55.9558+138.963+56.045+140.332+55.2596C142.736+53.8889+143.616+50.8455+142.294+48.3948Z" opacity="1" fill="#4788c7"/>
<path d="M110.102+30.1488C110.001+29.7884+109.859+29.4372+109.685+29.116C109.333+28.4632+108.84+27.9201+108.262+27.5561C107.937+27.3502+107.683+27.0789+107.502+26.7421C106.909+25.6437+107.32+24.2718+108.413+23.682C109.511+23.0894+110.883+23.4998+111.473+24.593C111.789+25.1785+111.829+25.8727+111.584+26.4861C111.223+27.4034+111.205+28.4972+111.533+29.6644L113.81+37.7276L112.36+38.1414L110.102+30.1488Z" opacity="1" fill="#98ccfd"/>
<path d="M110.81+24.9508C111.019+25.3394+111.047+25.7995+110.881+26.2103C110.46+27.2665+110.431+28.5265+110.798+29.84C110.687+29.4589+110.533+29.1002+110.349+28.7582C109.935+27.9914+109.352+27.3563+108.666+26.9166C108.454+26.7836+108.282+26.6019+108.162+26.3792C107.771+25.6538+108.04+24.7393+108.776+24.3424C109.506+23.9483+110.418+24.2254+110.81+24.9508M112.136+24.2352C111.348+22.7741+109.521+22.2277+108.06+23.016C106.594+23.807+106.048+25.6336+106.836+27.0947C107.087+27.561+107.446+27.9292+107.855+28.1904C108.355+28.5094+108.743+28.9557+109.022+29.4738C109.173+29.7536+109.29+30.0449+109.376+30.3531L111.839+39.0716L114.74+38.2492L112.259+29.46C112.005+28.5803+111.941+27.6182+112.281+26.7726C112.598+25.9725+112.575+25.0487+112.136+24.2352Z" opacity="1" fill="#4788c7"/>
<path d="M92.6349+46.8098C92.0283+45.6855+92.4482+44.2816+93.5726+43.6751C94.4741+43.1887+95.6014+43.3565+96.3221+44.0848C97.0376+44.8159+97.9936+45.1496+98.6412+45.2217C100.372+45.4049+104.605+45.9107+106.324+46.1207L106.143+47.6699C104.53+47.4698+100.728+47.0059+98.6903+46.8006C97.8314+46.7088+96.7488+47.2192+95.8058+47.7279C94.6453+48.354+93.2414+47.9341+92.6349+46.8098Z" opacity="1" fill="#98ccfd"/>
<path d="M105.488+46.7789L105.482+46.8291C103.634+46.6021+100.535+46.227+98.767+46.0501C97.7048+45.9409+96.4947+46.5001+95.4118+47.0843C94.6553+47.4924+93.7061+47.2085+93.298+46.452C92.89+45.6955+93.1739+44.7463+93.9303+44.3383C94.5365+44.0112+95.2986+44.1219+95.7854+44.6151C96.5117+45.3538+97.5548+45.8613+98.5616+45.967C100.06+46.1285+103.5+46.5404+105.488+46.7789M107.159+45.4625C107.159+45.4625+100.919+44.7083+98.7179+44.4712C98.1577+44.4123+97.4082+44.1142+96.8616+43.5596C95.9258+42.6062+94.4427+42.3494+93.2148+43.0119C91.7226+43.8169+91.1666+45.6754+91.9717+47.1676C92.7767+48.6598+94.6352+49.2157+96.1274+48.4107C96.5937+48.1591+97.8471+47.4695+98.6187+47.5483C101.245+47.8169+106.804+48.5107+106.804+48.5107L107.159+45.4625Z" opacity="1" fill="#4788c7"/>
<path d="M120.202+29.7635C120.953+28.0544+121.082+26.2856+120.564+24.7792C120.427+24.3778+120.348+23.9588+120.334+23.4983C120.286+22.0458+120.93+20.635+122.024+19.8239C123.067+19.0408+124.341+18.7614+125.595+19.0411C126.834+19.3161+127.891+20.1103+128.495+21.2294C128.657+21.5299+128.789+21.8604+128.886+22.2024C129.27+23.6076+128.853+25.2168+127.823+26.2946C127.346+26.7862+126.806+27.1507+126.202+27.3696C124.564+27.979+123.216+29.3353+122.394+31.1968L117.155+43.0866L114.792+42.0406L120.202+29.7635Z" opacity="1" fill="#b6dcfe"/>
<path d="M127.832+21.5872C127.969+21.8411+128.075+22.1118+128.157+22.4016C128.473+23.556+128.129+24.8785+127.275+25.7743C126.884+26.1789+126.433+26.4827+125.94+26.6613C124.107+27.3426+122.602+28.8434+121.702+30.8943L116.766+42.0925L115.781+41.6542L120.889+30.0688C121.718+28.1834+121.854+26.2168+121.272+24.5306C121.157+24.205+121.096+23.8565+121.084+23.475C121.044+22.2593+121.574+21.097+122.47+20.4264C123.342+19.775+124.389+19.5449+125.428+19.7733C126.455+20.0022+127.332+20.6598+127.832+21.5872M129.158+20.8717C127.694+18.1567+124.135+17.3007+121.571+19.219C120.245+20.2085+119.522+21.8693+119.579+23.5244C119.596+24.077+119.691+24.5745+119.847+25.0254C120.345+26.4692+120.126+28.0591+119.508+29.4559L113.798+42.4297L117.537+44.0783L123.08+31.5021C123.747+29.9852+124.909+28.6557+126.459+28.0808C127.138+27.8278+127.787+27.4178+128.363+26.8125C129.57+25.5528+130.073+23.6827+129.607+22.0009C129.494+21.5935+129.346+21.2188+129.158+20.8717Z" opacity="1" fill="#4788c7"/>
<path d="M94.5988+34.5793C94.1628+33.7711+94.1174+32.8189+94.4728+31.965C94.8305+31.1031+95.5382+30.4805+96.465+30.2146C97.517+29.9079+98.715+30.2315+99.4509+31.0252C99.6444+31.2352+99.8069+31.4619+99.9383+31.7055C100.207+32.2029+100.335+32.7626+100.294+33.3328C100.231+34.2567+100.422+35.1568+100.842+35.934C101.06+36.3382+101.337+36.7036+101.668+37.0199L107+42.1038L106.081+43.0674L100.652+37.8891C99.6964+36.9732+98.4033+36.3865+96.8018+36.1334C95.8544+35.989+95.0517+35.4187+94.5988+34.5793Z" opacity="1" fill="#b6dcfe"/>
<path d="M99.2775+32.0553C99.4815+32.4335+99.5684+32.8549+99.542+33.2772C99.4699+34.3462+99.692+35.3903+100.176+36.2866C100.265+36.4524+100.362+36.6075+100.461+36.7545C99.5023+36.0679+98.3106+35.6071+96.9157+35.3897C96.2091+35.2826+95.603+34.8536+95.262+34.2215C94.935+33.6153+94.897+32.9001+95.1668+32.2595C95.439+31.6109+95.9749+31.1412+96.6717+30.9325C97.4602+30.7078+98.3528+30.9487+98.8979+31.5376C99.0503+31.6962+99.1796+31.8739+99.2775+32.0553M108.066+42.0838L102.191+36.4768C101.912+36.2063+101.681+35.9027+101.502+35.5711C101.147+34.913+100.997+34.1512+101.049+33.3804C101.094+32.6942+100.953+31.9874+100.604+31.3397C100.447+31.0496+100.244+30.7714+100.004+30.5128C99.0665+29.5068+97.571+29.1029+96.2527+29.4863C93.8382+30.1936+92.812+32.8543+93.9356+34.9371C94.5198+36.02+95.5579+36.7042+96.6828+36.8799C97.9665+37.0771+99.1925+37.5394+100.129+38.4322L106.106+44.1308L108.066+42.0838Z" opacity="1" fill="#4788c7"/>
<path d="M123.588+53.0145C123.976+53.4345+124.556+54.0644+125.219+54.784C126.688+56.3793+128.536+58.3922+129.514+59.4233C130.173+60.1245+130.789+60.6085+132.718+60.538C133.681+60.5002+134.5+60.9277+134.908+61.6842C135.484+62.7515+135.088+64.0888+134.016+64.6674C132.948+65.2432+131.608+64.8423+131.032+63.775C130.96+63.6403+130.905+63.5024+130.856+63.3616C130.542+62.3073+130.233+61.5372+129.864+60.8533C129.548+60.2678+129.195+59.7625+128.789+59.3194L123.24+53.3362L123.588+53.0145Z" opacity="1" fill="#b6dcfe"/>
<path d="M134.245+62.042C134.625+62.7466+134.362+63.624+133.658+64.0042C132.953+64.3843+132.076+64.1218+131.696+63.4172C131.648+63.3291+131.611+63.2355+131.582+63.1442C131.344+62.3561+131.108+61.7075+130.845+61.1336C131.352+61.2679+131.962+61.3201+132.749+61.2904C132.999+61.2826+133.848+61.3062+134.245+62.042M135.571+61.3264C134.99+60.2487+133.841+59.7444+132.686+59.7856C131.008+59.8484+130.598+59.4739+130.064+58.9057C128.289+57.0275+123.59+51.8897+123.627+51.9571L122.178+53.3007L128.231+59.8346C128.618+60.2546+128.935+60.7188+129.204+61.2162C129.601+61.952+129.889+62.7595+130.139+63.5815C130.195+63.7721+130.271+63.9514+130.369+64.1328C131.143+65.568+132.933+66.1076+134.373+65.3306C135.809+64.5563+136.345+62.7616+135.571+61.3264Z" opacity="1" fill="#4788c7"/>
<path d="M92.6709+59.5733C92.4724+59.2055+92.3178+58.8073+92.223+58.3835C91.8685+56.8957+92.3525+55.2634+93.4577+54.2123C94.9749+52.7717+97.0947+52.4976+98.8647+53.5094C100.568+54.4837+102.425+54.5656+103.963+53.7354L104.196+53.6096C104.782+53.2938+105.131+52.8246+105.356+52.5094C105.421+52.4205+105.477+52.3371+105.536+52.2852C105.709+52.1981+106.314+52.4875+106.699+53.2026C107.088+53.9227+106.995+54.5815+106.767+54.7045C106.744+54.7105+106.534+54.7302+106.389+54.7479C105.94+54.7961+105.379+54.8583+104.907+55.1127L103.985+55.6102C102.55+56.3845+101.422+57.6418+100.813+59.141C100.419+60.1226+99.7242+60.9055+98.7968+61.4058C97.7294+61.9816+96.511+62.1038+95.3545+61.7578C94.1979+61.4118+93.2439+60.6355+92.6709+59.5733Z" opacity="1" fill="#dff0fe"/>
<path d="M106.036+53.5603C106.128+53.7313+106.178+53.8852+106.198+54.0084C105.725+54.0626+105.109+54.1476+104.549+54.4495L103.632+54.9442C102.036+55.8051+100.786+57.1953+100.119+58.8597C99.7914+59.6785+99.2058+60.3289+98.439+60.7426C96.61+61.7293+94.3208+61.0445+93.3341+59.2156C93.1664+58.9047+93.0373+58.5663+92.9525+58.2107C92.6641+56.9816+93.0645+55.6284+93.9725+54.7573C95.2415+53.551+97.0148+53.3167+98.4952+54.1636C100.364+55.2355+102.509+55.3426+104.238+54.4433L104.554+54.2728C105.129+53.9626+105.517+53.5396+105.778+53.2049C105.865+53.2917+105.955+53.4101+106.036+53.5603M107.363+52.8448C106.809+51.8189+105.807+51.289+105.124+51.6579C104.818+51.8229+104.559+52.5579+103.839+52.9464C103.73+53.0051+103.652+53.0471+103.606+53.0722L103.523+53.117C103.523+53.117+103.543+53.1058+103.606+53.0722C102.222+53.8185+100.604+53.6344+99.2421+52.8576C97.3326+51.7606+94.8028+51.8946+92.9349+53.6648C91.6353+54.9011+91.0758+56.815+91.4883+58.5591C91.6039+59.0586+91.7841+59.5166+92.0077+59.9311C93.3913+62.4958+96.5898+63.4526+99.1545+62.069C100.274+61.4652+101.074+60.5184+101.514+59.4248C102.057+58.0751+103.063+56.9638+104.343+56.2734C104.343+56.2734+104.571+56.1504+105.265+55.7759C105.855+55.4572+106.822+55.5378+107.128+55.3729C107.812+55.0039+107.916+53.8706+107.363+52.8448Z" opacity="1" fill="#4788c7"/>
<path d="M117.919+71.4581C117.288+70.2871+117.519+68.8312+118.483+67.9161C119.077+67.3551+119.378+66.537+119.287+65.7365C119.285+65.7313+118.885+62.3747+118.764+61.2564C118.719+60.839+118.539+60.4679+118.385+60.1829C118.385+60.1829+118.162+59.7816+118.156+59.7712C118.134+59.7298+118.122+59.6959+118.111+59.662C118.106+59.591+118.463+59.2112+119.18+59.152C119.785+59.1069+120.205+59.3282+120.302+59.4964C120.295+59.5072+120.28+59.5419+120.26+59.5794C120.135+59.8546+119.925+60.3089+120.006+60.8938C120.157+62.0296+120.532+65.4396+120.532+65.4396C120.574+65.7649+120.665+66.0703+120.819+66.3553C121.07+66.8216+121.464+67.2044+121.954+67.4684C122.45+67.7427+122.858+68.1515+123.126+68.6489C123.233+68.8458+123.321+69.059+123.383+69.2863C123.688+70.3594+123.297+71.6069+122.434+72.3133C121.723+72.9044+120.842+73.132+119.96+72.9592C119.083+72.7837+118.338+72.2352+117.919+71.4581Z" opacity="1" fill="#dff0fe"/>
<path d="M119.335+59.8979C119.307+60.0068+119.279+60.1288+119.262+60.2584C119.211+60.1388+119.157+60.0272+119.101+59.9236C119.143+59.9144+119.193+59.9076+119.243+59.9008C119.274+59.8971+119.309+59.8987+119.335+59.8979M122.468+69.0039C122.549+69.1541+122.61+69.3156+122.662+69.4878C122.885+70.2843+122.597+71.202+121.958+71.7276C121.421+72.171+120.765+72.3442+120.1+72.2147C119.451+72.09+118.895+71.6806+118.582+71.1003C118.113+70.2298+118.285+69.1472+119.006+68.4636C119.572+67.9244+119.931+67.2021+120.028+66.4404C120.071+66.5313+120.113+66.6222+120.161+66.7103C120.482+67.3061+120.974+67.7965+121.596+68.1302C121.965+68.332+122.267+68.6308+122.468+69.0039M120.968+59.1438C120.7+58.6464+119.961+58.3296+119.117+58.4032C118.093+58.4878+117.311+59.11+117.369+59.7878C117.378+59.8903+117.437+60.0122+117.518+60.1625C117.579+60.2765+117.654+60.4032+117.727+60.5379C117.861+60.7866+117.988+61.0592+118.015+61.3324C118.132+62.4535+118.537+65.8204+118.537+65.8204C118.602+66.4005+118.388+66.9708+117.966+67.3659C116.781+68.4932+116.443+70.3081+117.256+71.8158C118.346+73.8365+121.046+74.44+122.921+72.8935C124.013+71.9903+124.497+70.4449+124.109+69.0819C124.029+68.7973+123.926+68.5318+123.795+68.2883C123.443+67.6355+122.919+67.1355+122.313+66.8066C121.962+66.6147+121.672+66.3366+121.487+65.9947C121.381+65.7978+121.309+65.5893+121.286+65.3609C121.286+65.3609+120.908+61.9325+120.754+60.7915C120.671+60.1803+121.096+59.7773+121.071+59.483C121.06+59.3622+121.024+59.2474+120.968+59.1438Z" opacity="1" fill="#4788c7"/>
<path d="M126.359+41.399C125.618+40.026+125.668+38.3334+126.119+38.0902C126.394+37.9421+126.796+37.9928+127.22+38.2456C128.153+38.7856+129.177+38.8354+130.032+38.3742L130.394+38.1785C131.767+37.4378+133.071+36.5069+133.277+34.7305C133.51+32.745+134.953+31.204+136.96+30.7834C138.389+30.4808+139.972+30.9847+140.991+32.0541C141.29+32.374+141.546+32.7243+141.747+33.0973C142.93+35.289+142.106+38.0409+139.915+39.2232C138.62+39.922+137.061+39.9468+135.742+39.2871C134.366+38.5976+132.842+38.6977+131.22+39.5726L130.8+39.799C129.951+40.2574+129.425+41.143+129.369+42.2168C129.339+42.7077+129.169+43.0739+128.889+43.2248C128.418+43.4792+127.094+42.7617+126.359+41.399Z" opacity="1" fill="#dff0fe"/>
<path d="M141.084+33.4551C142.071+35.2841+141.386+37.5733+139.557+38.56C138.479+39.1414+137.179+39.1608+136.079+38.6102C134.468+37.8069+132.714+37.9036+130.86+38.9042L130.44+39.1307C129.367+39.7093+128.689+40.8446+128.617+42.1744C128.603+42.3355+128.575+42.4443+128.553+42.503C128.226+42.4051+127.489+41.9065+127.022+41.0413C126.561+40.1864+126.478+39.2012+126.57+38.7769C126.639+38.7932+126.732+38.8298+126.848+38.8947C127.996+39.5596+129.317+39.616+130.39+39.0374L130.752+38.8417C131.726+38.3162+133.742+37.2289+134.025+34.8152C134.216+33.1603+135.427+31.8715+137.105+31.5217C138.29+31.2767+139.601+31.6864+140.44+32.5717C140.702+32.8454+140.914+33.1391+141.084+33.4551M142.411+32.7396C142.181+32.3147+141.89+31.9102+141.533+31.5341C140.337+30.2727+138.504+29.6896+136.803+30.0454C134.325+30.5598+132.776+32.4992+132.531+34.6378C132.362+36.0733+131.311+36.8277+130.037+37.5153L129.674+37.711C129.016+38.066+128.246+37.9661+127.6+37.5859C126.967+37.2183+126.3+37.1363+125.761+37.427C124.736+37.9805+124.866+40.218+125.696+41.7568C126.526+43.2957+128.218+44.4363+129.244+43.8828C129.783+43.5921+130.08+42.9902+130.121+42.2593C130.158+41.5101+130.497+40.812+131.155+40.457L131.575+40.2306C132.834+39.5514+134.125+39.3163+135.402+39.9589C136.887+40.7029+138.703+40.7334+140.273+39.8864C142.837+38.5028+143.794+35.3043+142.411+32.7396Z" opacity="1" fill="#4788c7"/>
<path d="M103.282+53.8488C99.3352+46.5329+102.074+37.376+109.39+33.4292C116.706+29.4824+125.863+32.2216+129.81+39.5375C133.757+46.8533+131.017+56.0102+123.702+59.957C116.386+63.9038+107.229+61.1647+103.282+53.8488Z" opacity="1" fill="#dff0fe"/>
<path d="M129.147+39.8952C132.895+46.8432+130.292+55.5455+123.344+59.2938C116.396+63.0422+107.694+60.439+103.945+53.491C100.197+46.543+102.8+37.8408+109.748+34.0924C116.696+30.3441+125.398+32.9472+129.147+39.8952M130.473+39.1797C126.322+31.4856+116.727+28.6152+109.032+32.766C101.338+36.9169+98.468+46.5125+102.619+54.2066C106.77+61.9007+116.365+64.7711+124.059+60.6202C131.753+56.4694+134.624+46.8738+130.473+39.1797Z" opacity="1" fill="#4788c7"/>
<path d="M120.883+45.2096C119.054+46.1963+116.765+45.5115+115.778+43.6826C114.791+41.8536+115.476+39.5644+117.305+38.5777C119.134+37.591+121.423+38.2758+122.41+40.1047C123.397+41.9337+122.712+44.2229+120.883+45.2096Z" opacity="1" fill="#98ccfd"/>
<path d="M107.104+46.6496C106.461+45.4579+106.829+44.2295+108.02+43.5866C109.212+42.9438+110.438+43.306+111.083+44.5029C111.726+45.6946+111.359+46.9229+110.167+47.5658C108.975+48.2087+107.747+47.8413+107.104+46.6496Z" opacity="1" fill="#98ccfd"/>
<path d="M111.755+55.2711C110.992+53.8566+111.562+51.9503+112.977+51.1872C114.391+50.4241+116.298+50.9944+117.061+52.4088C117.824+53.8233+117.254+55.7297+115.839+56.4928C114.425+57.2558+112.518+56.6856+111.755+55.2711Z" opacity="1" fill="#98ccfd"/>
</g>
<g opacity="1">
<path d="M353.295+247.919L365.545+247.919L365.545+288.679L357.609+288.679L357.609+261.11C357.609+260.317+357.618+259.206+357.636+257.777C357.655+256.349+357.664+255.247+357.664+254.473L349.949+288.679L341.681+288.679L334.021+254.473C334.021+255.247+334.03+256.349+334.049+257.777C334.067+259.206+334.076+260.317+334.076+261.11L334.076+288.679L326.14+288.679L326.14+247.919L338.528+247.919L345.939+279.969L353.295+247.919Z" opacity="1" fill="#008283"/>
<path d="M393.502+273.664C393.502+270.64+392.884+268.313+391.649+266.682C390.414+265.05+388.644+264.234+386.34+264.234C384.035+264.234+382.261+265.05+381.017+266.682C379.772+268.313+379.15+270.64+379.15+273.664C379.15+276.687+379.772+279.019+381.017+280.66C382.261+282.301+384.035+283.121+386.34+283.121C388.644+283.121+390.414+282.301+391.649+280.66C392.884+279.019+393.502+276.687+393.502+273.664ZM386.367+289.73C381.187+289.73+377.325+288.158+374.781+285.015C372.237+281.872+370.965+278.088+370.965+273.664C370.965+269.313+372.237+265.543+374.781+262.354C377.325+259.165+381.187+257.57+386.367+257.57C391.548+257.57+395.41+259.165+397.954+262.354C400.498+265.543+401.77+269.313+401.77+273.664C401.77+278.088+400.498+281.872+397.954+285.015C395.41+288.158+391.548+289.73+386.367+289.73Z" opacity="1" fill="#008283"/>
<path d="M434.732+268.382L434.732+288.679L426.657+288.679L426.657+270.346C426.657+268.76+426.445+267.543+426.021+266.695C425.247+265.147+423.772+264.373+421.597+264.373C418.924+264.373+417.09+265.506+416.094+267.774C415.578+268.972+415.32+270.502+415.32+272.364L415.32+288.679L407.466+288.679L407.466+258.593L415.071+258.593L415.071+262.99C416.085+261.441+417.043+260.326+417.947+259.644C419.569+258.427+421.625+257.819+424.113+257.819C427.229+257.819+429.778+258.635+431.759+260.266C433.741+261.898+434.732+264.603+434.732+268.382Z" opacity="1" fill="#008283"/>
<path d="M450.107+254.943L442.115+254.943L442.115+247.67L450.107+247.67L450.107+254.943ZM442.115+258.538L450.107+258.538L450.107+288.679L442.115+288.679L442.115+258.538Z" opacity="1" fill="#008283"/>
<path d="M454.642+264.428L454.642+258.814L458.845+258.814L458.845+250.408L466.643+250.408L466.643+258.814L471.538+258.814L471.538+264.428L466.643+264.428L466.643+280.356C466.643+281.591+466.8+282.361+467.113+282.665C467.427+282.969+468.385+283.121+469.989+283.121C470.229+283.121+470.482+283.116+470.75+283.107C471.017+283.098+471.28+283.084+471.538+283.066L471.538+288.956L467.805+289.094C464.081+289.223+461.537+288.578+460.172+287.158C459.288+286.255+458.845+284.863+458.845+282.983L458.845+264.428L454.642+264.428Z" opacity="1" fill="#008283"/>
<path d="M497.282+273.664C497.282+270.64+496.665+268.313+495.43+266.682C494.194+265.05+492.425+264.234+490.12+264.234C487.816+264.234+486.041+265.05+484.797+266.682C483.553+268.313+482.931+270.64+482.931+273.664C482.931+276.687+483.553+279.019+484.797+280.66C486.041+282.301+487.816+283.121+490.12+283.121C492.425+283.121+494.194+282.301+495.43+280.66C496.665+279.019+497.282+276.687+497.282+273.664ZM490.148+289.73C484.968+289.73+481.105+288.158+478.561+285.015C476.017+281.872+474.745+278.088+474.745+273.664C474.745+269.313+476.017+265.543+478.561+262.354C481.105+259.165+484.968+257.57+490.148+257.57C495.328+257.57+499.19+259.165+501.734+262.354C504.278+265.543+505.55+269.313+505.55+273.664C505.55+278.088+504.278+281.872+501.734+285.015C499.19+288.158+495.328+289.73+490.148+289.73Z" opacity="1" fill="#008283"/>
<path d="M528.613+257.874L528.613+265.949C528.115+265.893+527.672+265.857+527.285+265.838C526.898+265.82+526.585+265.81+526.345+265.81C523.174+265.81+521.045+266.843+519.957+268.908C519.349+270.069+519.045+271.857+519.045+274.272L519.045+288.679L511.109+288.679L511.109+258.538L518.63+258.538L518.63+263.792C519.847+261.782+520.907+260.409+521.81+259.672C523.285+258.436+525.202+257.819+527.562+257.819C527.709+257.819+527.834+257.823+527.935+257.833C528.037+257.842+528.262+257.856+528.613+257.874Z" opacity="1" fill="#008283"/>
<path d="M541.333+254.943L533.341+254.943L533.341+247.67L541.333+247.67L541.333+254.943ZM533.341+258.538L541.333+258.538L541.333+288.679L533.341+288.679L533.341+258.538Z" opacity="1" fill="#008283"/>
<path d="M576.286+268.382L576.286+288.679L568.211+288.679L568.211+270.346C568.211+268.76+567.999+267.543+567.575+266.695C566.801+265.147+565.326+264.373+563.151+264.373C560.478+264.373+558.643+265.506+557.648+267.774C557.132+268.972+556.874+270.502+556.874+272.364L556.874+288.679L549.02+288.679L549.02+258.593L556.625+258.593L556.625+262.99C557.639+261.441+558.597+260.326+559.501+259.644C561.123+258.427+563.178+257.819+565.667+257.819C568.783+257.819+571.331+258.635+573.313+260.266C575.295+261.898+576.286+264.603+576.286+268.382Z" opacity="1" fill="#008283"/>
<path d="M603.081+273.47C603.081+270.613+602.477+268.437+601.27+266.944C600.062+265.451+598.445+264.704+596.417+264.704C593.652+264.704+591.744+266.004+590.693+268.603C590.14+269.986+589.863+271.691+589.863+273.719C589.863+275.47+590.158+277.028+590.748+278.392C591.817+280.936+593.735+282.208+596.5+282.208C598.343+282.208+599.901+281.513+601.173+280.121C602.445+278.729+603.081+276.512+603.081+273.47ZM598.491+258.51C600.408+259.303+601.957+260.759+603.137+262.879L603.137+258.538L610.796+258.538L610.796+287.131C610.796+291.02+610.142+293.952+608.833+295.924C606.584+299.316+602.27+301.012+595.892+301.012C592.039+301.012+588.895+300.256+586.462+298.745C584.029+297.233+582.683+294.975+582.425+291.97L590.997+291.97C591.218+292.892+591.578+293.555+592.075+293.961C592.923+294.68+594.352+295.039+596.362+295.039C599.201+295.039+601.099+294.09+602.058+292.191C602.685+290.974+602.998+288.928+602.998+286.052L602.998+284.117C602.242+285.407+601.431+286.375+600.565+287.02C598.998+288.218+596.961+288.817+594.454+288.817C590.582+288.817+587.49+287.458+585.176+284.739C582.863+282.02+581.706+278.337+581.706+273.691C581.706+269.212+582.821+265.446+585.052+262.395C587.282+259.344+590.444+257.819+594.537+257.819C596.048+257.819+597.366+258.049+598.491+258.51Z" opacity="1" fill="#008283"/>
</g>
<g opacity="1">
<path d="M158.073+35.8014L163.764+35.8014L163.764+54.7358L160.077+54.7358L160.077+41.9287C160.077+41.5605+160.081+41.0445+160.09+40.3808C160.099+39.7171+160.103+39.2054+160.103+38.8458L156.519+54.7358L152.678+54.7358L149.12+38.8458C149.12+39.2054+149.124+39.7171+149.133+40.3808C149.141+41.0445+149.146+41.5605+149.146+41.9287L149.146+54.7358L145.459+54.7358L145.459+35.8014L151.214+35.8014L154.656+50.6894L158.073+35.8014Z" opacity="1" fill="#008283"/>
<path d="M176.751+47.7606C176.751+46.3562+176.464+45.275+175.89+44.5171C175.316+43.7592+174.494+43.3803+173.424+43.3803C172.353+43.3803+171.529+43.7592+170.951+44.5171C170.373+45.275+170.084+46.3562+170.084+47.7606C170.084+49.1651+170.373+50.2484+170.951+51.0105C171.529+51.7727+172.353+52.1538+173.424+52.1538C174.494+52.1538+175.316+51.7727+175.89+51.0105C176.464+50.2484+176.751+49.1651+176.751+47.7606ZM173.437+55.2239C171.03+55.2239+169.236+54.4938+168.054+53.0337C166.872+51.5736+166.282+49.8159+166.282+47.7606C166.282+45.7396+166.872+43.9883+168.054+42.5068C169.236+41.0252+171.03+40.2845+173.437+40.2845C175.843+40.2845+177.637+41.0252+178.819+42.5068C180.001+43.9883+180.592+45.7396+180.592+47.7606C180.592+49.8159+180.001+51.5736+178.819+53.0337C177.637+54.4938+175.843+55.2239+173.437+55.2239Z" opacity="1" fill="#008283"/>
<path d="M195.903+45.3071L195.903+54.7358L192.153+54.7358L192.153+46.2191C192.153+45.4827+192.054+44.9175+191.857+44.5235C191.497+43.8042+190.812+43.4445+189.802+43.4445C188.56+43.4445+187.708+43.9712+187.246+45.0245C187.006+45.5811+186.886+46.2919+186.886+47.1569L186.886+54.7358L183.238+54.7358L183.238+40.7598L186.77+40.7598L186.77+42.8022C187.241+42.0829+187.687+41.5648+188.106+41.2479C188.86+40.6827+189.815+40.4001+190.971+40.4001C192.418+40.4001+193.602+40.779+194.523+41.5369C195.443+42.2948+195.903+43.5515+195.903+45.3071Z" opacity="1" fill="#008283"/>
<path d="M203.046+39.0641L199.333+39.0641L199.333+35.6858L203.046+35.6858L203.046+39.0641ZM199.333+40.7341L203.046+40.7341L203.046+54.7358L199.333+54.7358L199.333+40.7341Z" opacity="1" fill="#008283"/>
<path d="M205.152+43.4702L205.152+40.8625L207.105+40.8625L207.105+36.9575L210.727+36.9575L210.727+40.8625L213.001+40.8625L213.001+43.4702L210.727+43.4702L210.727+50.8692C210.727+51.443+210.8+51.8005+210.946+51.9418C211.091+52.0831+211.537+52.1538+212.282+52.1538C212.393+52.1538+212.511+52.1517+212.635+52.1474C212.759+52.1431+212.881+52.1367+213.001+52.1281L213.001+54.8642L211.267+54.9284C209.537+54.9884+208.355+54.6887+207.721+54.0293C207.31+53.6096+207.105+52.9631+207.105+52.0896L207.105+43.4702L205.152+43.4702Z" opacity="1" fill="#008283"/>
<path d="M224.96+47.7606C224.96+46.3562+224.673+45.275+224.1+44.5171C223.526+43.7592+222.704+43.3803+221.633+43.3803C220.563+43.3803+219.738+43.7592+219.16+44.5171C218.582+45.275+218.293+46.3562+218.293+47.7606C218.293+49.1651+218.582+50.2484+219.16+51.0105C219.738+51.7727+220.563+52.1538+221.633+52.1538C222.704+52.1538+223.526+51.7727+224.1+51.0105C224.673+50.2484+224.96+49.1651+224.96+47.7606ZM221.646+55.2239C219.24+55.2239+217.446+54.4938+216.264+53.0337C215.082+51.5736+214.491+49.8159+214.491+47.7606C214.491+45.7396+215.082+43.9883+216.264+42.5068C217.446+41.0252+219.24+40.2845+221.646+40.2845C224.052+40.2845+225.847+41.0252+227.028+42.5068C228.21+43.9883+228.801+45.7396+228.801+47.7606C228.801+49.8159+228.21+51.5736+227.028+53.0337C225.847+54.4938+224.052+55.2239+221.646+55.2239Z" opacity="1" fill="#008283"/>
<path d="M239.514+40.4258L239.514+44.1767C239.283+44.151+239.077+44.1339+238.898+44.1253C238.718+44.1167+238.572+44.1125+238.461+44.1125C236.988+44.1125+235.999+44.592+235.494+45.5512C235.211+46.0907+235.07+46.9214+235.07+48.0432L235.07+54.7358L231.383+54.7358L231.383+40.7341L234.877+40.7341L234.877+43.1747C235.442+42.2413+235.935+41.6033+236.354+41.2607C237.039+40.687+237.93+40.4001+239.026+40.4001C239.095+40.4001+239.152+40.4022+239.2+40.4065C239.247+40.4108+239.352+40.4172+239.514+40.4258Z" opacity="1" fill="#008283"/>
<path d="M245.423+39.0641L241.711+39.0641L241.711+35.6858L245.423+35.6858L245.423+39.0641ZM241.711+40.7341L245.423+40.7341L245.423+54.7358L241.711+54.7358L241.711+40.7341Z" opacity="1" fill="#008283"/>
<path d="M261.66+45.3071L261.66+54.7358L257.909+54.7358L257.909+46.2191C257.909+45.4827+257.811+44.9175+257.614+44.5235C257.254+43.8042+256.569+43.4445+255.558+43.4445C254.317+43.4445+253.465+43.9712+253.002+45.0245C252.762+45.5811+252.642+46.2919+252.642+47.1569L252.642+54.7358L248.994+54.7358L248.994+40.7598L252.527+40.7598L252.527+42.8022C252.998+42.0829+253.443+41.5648+253.863+41.2479C254.616+40.6827+255.571+40.4001+256.727+40.4001C258.175+40.4001+259.359+40.779+260.279+41.5369C261.2+42.2948+261.66+43.5515+261.66+45.3071Z" opacity="1" fill="#008283"/>
<path d="M274.107+47.6707C274.107+46.3433+273.827+45.3328+273.266+44.6391C272.705+43.9455+271.954+43.5986+271.012+43.5986C269.727+43.5986+268.841+44.2024+268.353+45.4099C268.096+46.0521+267.967+46.8443+267.967+47.7863C267.967+48.5999+268.104+49.3235+268.378+49.9572C268.875+51.139+269.766+51.7299+271.05+51.7299C271.907+51.7299+272.63+51.4066+273.221+50.7601C273.812+50.1135+274.107+49.0837+274.107+47.6707ZM271.975+40.7212C272.866+41.0895+273.585+41.766+274.133+42.7508L274.133+40.7341L277.691+40.7341L277.691+54.0164C277.691+55.8234+277.387+57.185+276.779+58.1013C275.734+59.677+273.731+60.4649+270.768+60.4649C268.978+60.4649+267.518+60.1138+266.387+59.4116C265.257+58.7093+264.632+57.6603+264.512+56.2644L268.494+56.2644C268.597+56.6926+268.764+57.0009+268.995+57.1893C269.389+57.5233+270.052+57.6902+270.986+57.6902C272.305+57.6902+273.187+57.2492+273.632+56.3672C273.923+55.8019+274.069+54.8514+274.069+53.5154L274.069+52.6162C273.718+53.2157+273.341+53.6653+272.938+53.965C272.211+54.5217+271.264+54.8+270.1+54.8C268.301+54.8+266.865+54.1684+265.79+52.9053C264.715+51.6421+264.178+49.9315+264.178+47.7735C264.178+45.6925+264.696+43.9433+265.732+42.526C266.768+41.1087+268.237+40.4001+270.138+40.4001C270.84+40.4001+271.453+40.5071+271.975+40.7212Z" opacity="1" fill="#008283"/>
</g>
</g>
</svg>
